<svg xmlns="http://www.w3.org/2000/svg" viewBox="0 0 566.93 566.93"><title>logo_chattun_black</title><g id="Layer_2" data-name="Layer 2"><g id="Layer_1-2" data-name="Layer 1"><circle cx="170.08" cy="340.16" r="14.17"/><circle cx="283.46" cy="368.5" r="28.35"/><circle cx="439.37" cy="113.39" r="56.69"/><circle cx="382.68" cy="283.46" r="42.52"/><path d="M566.93,283.46a56.7,56.7,0,0,0-113.39,0h0A170.08,170.08,0,1,1,283.46,113.39v-.29a56.69,56.69,0,0,0,0-112.82V0c-1.26,0-2.51,0-3.77.05-.63,0-1.26,0-1.89,0-1.58,0-3.14.08-4.68.21C121.36,5.66,0,130.38,0,283.46,0,440,126.91,566.93,283.46,566.93S566.93,440,566.93,283.46Z"/></g></g></svg>